<?xml version="1.0" encoding="utf-8"?>
<!-- Generator: Adobe Illustrator 22.1.0, SVG Export Plug-In . SVG Version: 6.00 Build 0)  -->
<svg version="1.1" id="Layer_1" xmlns="http://www.w3.org/2000/svg" xmlns:xlink="http://www.w3.org/1999/xlink" x="0px" y="0px"
	 viewBox="0 0 50 50" style="enable-background:new 0 0 50 50;" xml:space="preserve">
<style type="text/css">
	.st0{fill:#FFFFFF;}
</style>
<path id="jNvVZB.tif" class="st0" d="M25.1,2.5c0.6,0,1.2,0,1.8,0c0.8,0.2,1.5,0.3,2.3,0.5c0.3,0.1,0.6,0.1,0.5,0.5
	c-0.2,0.9,0.4,0.6,0.9,0.7c0.7,0.1,1.3-0.3,2,0c2.1,1,4,2.3,5.5,4c0.4,0.5,1.2,0.9,0.8,1.8c-0.1,0.2,0.1,0.5,0.4,0.3
	c0.5-0.2,0.6,0.2,0.8,0.5c0.8,1.4,1.2,3,1.6,4.5c0,1,0,2.1,0,3.1c-0.4,1.5-0.8,3-1.3,4.4c-0.6,1.5-1,3-1,4.7c0,0.9,0,1.8,0.7,2.6
	c1.6,1.5,1.3,3.1,0.2,4.8c-0.3,0.4-0.4,0.9-0.6,1.4c-0.2,0.6-0.3,1.2-0.5,1.8c-0.7,2.2-2.1,2.9-4.4,2.4c-0.6-0.2-1.2-0.4-1.9-0.6
	c0.4,1.4,0.7,2.7,1,4.1c0.2,1.1,0.6,2.3,0.1,3.4c-0.8,0-1.6,0-2.4,0c-0.1-0.5-0.1-1-0.2-1.5c0-0.2,0-0.5-0.3-0.4
	c-0.3,0-0.2,0.3-0.2,0.5c0,0.5,0.1,1,0.1,1.5c-1,0-2,0-3,0c0.1-0.8,0.3-1.5-0.2-2.4c-0.4,0.9,0,1.7-0.1,2.4c-0.7,0-1.5,0-2.2,0
	c-0.4-0.6,0-1.4-0.5-2.1c-0.4,0.7-0.1,1.4-0.4,2.1c-0.7,0-1.5,0-2.2,0c0-0.5,0.1-1,0.1-1.5c0-0.2,0.1-0.7-0.2-0.7
	c-0.3,0-0.3,0.4-0.3,0.7c0,0.5,0.1,1,0.1,1.5c-1,0-2,0-3,0c0-0.5,0.1-1,0.1-1.6c0-0.2,0-0.4-0.2-0.5c-0.2,0-0.2,0.2-0.3,0.4
	c-0.2,0.5,0.1,1.1-0.2,1.6c-0.9,0-1.7,0-2.6,0c-0.1-2.6,0.6-5,1.3-7.5c-0.6,0.2-1,0.3-1.5,0.5c-3,0.8-4.7-0.3-5.2-3.4
	c-0.1-0.8-0.2-1.7-0.7-2.3c-1.1-1.5-1.3-2.9,0-4.4c0.8-0.9,0.8-1.8,0.8-2.9c0-0.8-0.2-1.6-0.3-2.4c-0.1-0.5-0.4-0.9,0-1.5
	c0.2-0.2,0-0.7-0.4-0.8c-0.3-0.1-0.4-0.3-0.5-0.6c-0.3-0.8-0.5-1.7-0.8-2.6c-0.1-0.4-0.2-0.7,0.5-0.6c0.2,0,0.7,0,0.5-0.3
	c-0.3-0.6-0.3-1.5-1.2-1.7c0-0.5,0-1,0-1.5c0.4-0.3,0.8-0.5,0.4-1.1c-0.1-0.1,0-0.3,0.1-0.5c0.1-0.6,0.5-1.1,0.7-1.6
	c0.2-0.8,0.5-1.6,1-2.3c1.7-2.6,4-4.5,6.8-5.8c0.9-0.4,1.9-0.8,2.8-1.1C20.7,3,21.5,3.9,22,2.8c0,0,0.2,0,0.3,0.1
	C23.3,3.4,24.2,3,25.1,2.5z M15.5,35.9c2.7-0.1,5-1,7.1-2.5c0.4-0.3,0.4-0.6,0.1-0.9c-0.5-0.4-1.1-0.9-1.8-1
	c-1.5-0.2-2.9-0.8-4.2-1.5c-1.1-0.6-2.7-0.3-3.5,0.7c-0.1,0.2-0.2,0.4-0.2,0.6c0,1.3,0.2,2.5,1,3.6C14.3,35.6,14.8,36.1,15.5,35.9z
	 M34.5,35.9c0.7,0.2,1.2-0.3,1.7-0.9c0.6-0.9,0.9-1.9,1-2.9c0.1-0.7,0-1.4-0.8-1.7c-0.8-0.4-1.6-1.1-2.6-0.5
	c-1.5,0.9-3.1,1.5-4.8,1.8c-0.7,0.1-1.2,0.6-1.7,1c-0.3,0.3-0.3,0.5,0.1,0.8C29.5,34.8,31.7,35.8,34.5,35.9z M27.4,40.9
	c-0.2-2-0.7-3.7-1.8-5.2c-0.3-0.4-0.6-0.6-1-0.1c-1.4,1.5-1.7,3.3-2,5.3c0.8-0.5,1.2-1,1.6-1.5c0.5-0.6,1.2-0.6,1.6,0
	C26.2,40,26.7,40.4,27.4,40.9z"/>
</svg>
